<?xml version="1.0" encoding="UTF-8" standalone="no"?>
<svg
   xmlns:dc="http://purl.org/dc/elements/1.1/"
   xmlns:cc="http://creativecommons.org/ns#"
   xmlns:rdf="http://www.w3.org/1999/02/22-rdf-syntax-ns#"
   xmlns:svg="http://www.w3.org/2000/svg"
   xmlns="http://www.w3.org/2000/svg"
   viewBox="0 0 287.625 228.03751"
   height="228.03751"
   width="287.625"
   xml:space="preserve"
   version="1.1"
   id="svg2"><metadata
     id="metadata8"><rdf:RDF><cc:Work
         rdf:about=""><dc:format>image/svg+xml</dc:format><dc:type
           rdf:resource="http://purl.org/dc/dcmitype/StillImage" /></cc:Work></rdf:RDF></metadata><defs
     id="defs6" /><g
     transform="matrix(1.25,0,0,-1.25,0,228.0375)"
     id="g10"><g
       transform="scale(0.1,0.1)"
       id="g12"><path
         id="path14"
         style="fill:#231f20;fill-opacity:1;fill-rule:nonzero;stroke:none"
         d="m 719.078,286.121 c 0,-132.16 -107.129,-239.2929 -239.281,-239.2929 -132.16,0 -239.289,107.1329 -239.289,239.2929 0,132.149 107.129,239.277 239.289,239.277 132.152,0 239.281,-107.128 239.281,-239.277" /><path
         id="path16"
         style="fill:none;stroke:#ffffff;stroke-width:10;stroke-linecap:butt;stroke-linejoin:miter;stroke-miterlimit:10;stroke-dasharray:none;stroke-opacity:1"
         d="m 719.078,286.121 c 0,-132.16 -107.129,-239.2929 -239.281,-239.2929 -132.16,0 -239.289,107.1329 -239.289,239.2929 0,132.149 107.129,239.277 239.289,239.277 132.152,0 239.281,-107.128 239.281,-239.277" /><path
         id="path18"
         style="fill:#231f20;fill-opacity:1;fill-rule:nonzero;stroke:none"
         d="m 719.078,286.121 c 0,-132.16 -107.129,-239.2929 -239.281,-239.2929 -132.16,0 -239.289,107.1329 -239.289,239.2929 0,132.149 107.129,239.277 239.289,239.277 132.152,0 239.281,-107.128 239.281,-239.277" /><path
         id="path20"
         style="fill:none;stroke:#ffffff;stroke-width:56.68999863;stroke-linecap:butt;stroke-linejoin:miter;stroke-miterlimit:10;stroke-dasharray:none;stroke-opacity:1"
         d="m 719.078,286.121 c 0,-132.16 -107.129,-239.2929 -239.281,-239.2929 -132.16,0 -239.289,107.1329 -239.289,239.2929 0,132.149 107.129,239.277 239.289,239.277 132.152,0 239.281,-107.128 239.281,-239.277 z" /><path
         id="path22"
         style="fill:#231f20;fill-opacity:1;fill-rule:nonzero;stroke:none"
         d="m 565.883,286.121 c 0,-47.551 -38.539,-86.09 -86.086,-86.09 -47.551,0 -86.098,38.539 -86.098,86.09 0,47.539 38.547,86.098 86.098,86.098 47.547,0 86.086,-38.559 86.086,-86.098" /><path
         id="path24"
         style="fill:none;stroke:#ffffff;stroke-width:10;stroke-linecap:butt;stroke-linejoin:miter;stroke-miterlimit:10;stroke-dasharray:none;stroke-opacity:1"
         d="m 565.883,286.121 c 0,-47.551 -38.539,-86.09 -86.086,-86.09 -47.551,0 -86.098,38.539 -86.098,86.09 0,47.539 38.547,86.098 86.098,86.098 47.547,0 86.086,-38.559 86.086,-86.098" /><path
         id="path26"
         style="fill:#231f20;fill-opacity:1;fill-rule:nonzero;stroke:none"
         d="m 565.883,286.121 c 0,-47.551 -38.539,-86.09 -86.086,-86.09 -47.551,0 -86.098,38.539 -86.098,86.09 0,47.539 38.547,86.098 86.098,86.098 47.547,0 86.086,-38.559 86.086,-86.098" /><path
         id="path28"
         style="fill:none;stroke:#ffffff;stroke-width:56.68999863;stroke-linecap:butt;stroke-linejoin:miter;stroke-miterlimit:10;stroke-dasharray:none;stroke-opacity:1"
         d="m 565.883,286.121 c 0,-47.551 -38.539,-86.09 -86.086,-86.09 -47.551,0 -86.098,38.539 -86.098,86.09 0,47.539 38.547,86.098 86.098,86.098 47.547,0 86.086,-38.559 86.086,-86.098 z" /><path
         id="path30"
         style="fill:#231f20;fill-opacity:1;fill-rule:nonzero;stroke:none"
         d="m 2073.76,267.629 c 0,-132.141 -107.13,-239.2774 -239.3,-239.2774 -132.15,0 -239.27,107.1364 -239.27,239.2774 0,132.152 107.12,239.293 239.27,239.293 132.17,0 239.3,-107.141 239.3,-239.293" /><path
         id="path32"
         style="fill:none;stroke:#ffffff;stroke-width:10;stroke-linecap:butt;stroke-linejoin:miter;stroke-miterlimit:10;stroke-dasharray:none;stroke-opacity:1"
         d="m 2073.76,267.629 c 0,-132.141 -107.13,-239.2774 -239.3,-239.2774 -132.15,0 -239.27,107.1364 -239.27,239.2774 0,132.152 107.12,239.293 239.27,239.293 132.17,0 239.3,-107.141 239.3,-239.293" /><path
         id="path34"
         style="fill:#231f20;fill-opacity:1;fill-rule:nonzero;stroke:none"
         d="m 2073.76,267.629 c 0,-132.141 -107.13,-239.2774 -239.3,-239.2774 -132.15,0 -239.27,107.1364 -239.27,239.2774 0,132.152 107.12,239.293 239.27,239.293 132.17,0 239.3,-107.141 239.3,-239.293" /><path
         id="path36"
         style="fill:none;stroke:#ffffff;stroke-width:56.68999863;stroke-linecap:butt;stroke-linejoin:miter;stroke-miterlimit:10;stroke-dasharray:none;stroke-opacity:1"
         d="m 2073.76,267.629 c 0,-132.141 -107.13,-239.2774 -239.3,-239.2774 -132.15,0 -239.27,107.1364 -239.27,239.2774 0,132.152 107.12,239.293 239.27,239.293 132.17,0 239.3,-107.141 239.3,-239.293 z" /><path
         id="path38"
         style="fill:#231f20;fill-opacity:1;fill-rule:nonzero;stroke:none"
         d="m 1920.57,267.629 c 0,-47.539 -38.55,-86.09 -86.11,-86.09 -47.54,0 -86.08,38.551 -86.08,86.09 0,47.551 38.54,86.09 86.08,86.09 47.56,0 86.11,-38.539 86.11,-86.09" /><path
         id="path40"
         style="fill:none;stroke:#ffffff;stroke-width:10;stroke-linecap:butt;stroke-linejoin:miter;stroke-miterlimit:10;stroke-dasharray:none;stroke-opacity:1"
         d="m 1920.57,267.629 c 0,-47.539 -38.55,-86.09 -86.11,-86.09 -47.54,0 -86.08,38.551 -86.08,86.09 0,47.551 38.54,86.09 86.08,86.09 47.56,0 86.11,-38.539 86.11,-86.09" /><path
         id="path42"
         style="fill:#231f20;fill-opacity:1;fill-rule:nonzero;stroke:none"
         d="m 1920.57,267.629 c 0,-47.539 -38.55,-86.09 -86.11,-86.09 -47.54,0 -86.08,38.551 -86.08,86.09 0,47.551 38.54,86.09 86.08,86.09 47.56,0 86.11,-38.539 86.11,-86.09" /><path
         id="path44"
         style="fill:none;stroke:#ffffff;stroke-width:56.68999863;stroke-linecap:butt;stroke-linejoin:miter;stroke-miterlimit:10;stroke-dasharray:none;stroke-opacity:1"
         d="m 1920.57,267.629 c 0,-47.539 -38.55,-86.09 -86.11,-86.09 -47.54,0 -86.08,38.551 -86.08,86.09 0,47.551 38.54,86.09 86.08,86.09 47.56,0 86.11,-38.539 86.11,-86.09 z" /><path
         id="path46"
         style="fill:#231f20;fill-opacity:1;fill-rule:nonzero;stroke:none"
         d="m 2192.76,1614.34 c 0,0 -1472.416,141.8 -1928.194,63.3 0,0 23.493,83.57 784.954,78.5 761.46,-5.06 1202.75,-91.15 1143.24,-141.8" /><path
         id="path48"
         style="fill:none;stroke:#ffffff;stroke-width:10;stroke-linecap:butt;stroke-linejoin:miter;stroke-miterlimit:10;stroke-dasharray:none;stroke-opacity:1"
         d="m 2192.76,1614.34 c 0,0 -1472.416,141.8 -1928.194,63.3 0,0 23.493,83.57 784.954,78.5 761.46,-5.06 1202.75,-91.15 1143.24,-141.8" /><path
         id="path50"
         style="fill:#231f20;fill-opacity:1;fill-rule:nonzero;stroke:none"
         d="m 1681.2,1577.62 7.68,162.56 c 0,0 37.15,14.32 70.9,-11.46 l -9.89,-156.18 -73.81,5.43" /><path
         id="path52"
         style="fill:none;stroke:#ffffff;stroke-width:10;stroke-linecap:butt;stroke-linejoin:miter;stroke-miterlimit:10;stroke-dasharray:none;stroke-opacity:1"
         d="m 1681.2,1577.62 7.68,162.56 c 0,0 37.15,14.32 70.9,-11.46 l -9.89,-156.18 -73.81,5.43" /><path
         id="path54"
         style="fill:#231f20;fill-opacity:1;fill-rule:nonzero;stroke:none"
         d="m 1681.2,1577.62 7.68,162.56 c 0,0 37.15,14.32 70.9,-11.46 l -9.89,-156.18 -73.81,5.43" /><path
         id="path56"
         style="fill:none;stroke:#ffffff;stroke-width:17.01000023;stroke-linecap:butt;stroke-linejoin:miter;stroke-miterlimit:10;stroke-dasharray:none;stroke-opacity:1"
         d="m 1681.2,1577.62 7.68,162.56 c 0,0 37.15,14.32 70.9,-11.46 l -9.89,-156.18 -73.81,5.43" /><path
         id="path58"
         style="fill:#231f20;fill-opacity:1;fill-rule:nonzero;stroke:none"
         d="m 791.848,1594.48 4.09,163.63 c 0,0 36.597,27.67 70.886,1.47 l -5.883,-161.96 -69.093,-3.14" /><path
         id="path60"
         style="fill:none;stroke:#ffffff;stroke-width:10;stroke-linecap:butt;stroke-linejoin:miter;stroke-miterlimit:10;stroke-dasharray:none;stroke-opacity:1"
         d="m 791.848,1594.48 4.09,163.63 c 0,0 36.597,27.67 70.886,1.47 l -5.883,-161.96 -69.093,-3.14 z" /><path
         id="path62"
         style="fill:#231f20;fill-opacity:1;fill-rule:nonzero;stroke:none"
         d="m 791.848,1594.48 4.09,163.63 c 0,0 36.597,27.67 70.886,1.47 l -5.883,-161.96 -69.093,-3.14" /><path
         id="path64"
         style="fill:none;stroke:#ffffff;stroke-width:17.01000023;stroke-linecap:butt;stroke-linejoin:miter;stroke-miterlimit:10;stroke-dasharray:none;stroke-opacity:1"
         d="m 791.848,1594.48 4.09,163.63 c 0,0 36.597,27.67 70.886,1.47 l -5.883,-161.96 -69.093,-3.14 z" /><path
         id="path66"
         style="fill:#231f20;fill-opacity:1;fill-rule:nonzero;stroke:none"
         d="m 79.7227,332.25 c 0,0 -40.5118,435.531 0,604.332 40.5113,168.818 243.0823,536.808 310.6053,597.578 0,0 185.688,91.15 972.322,60.77 786.64,-30.39 837.28,-104.66 837.28,-104.66 0,0 158.69,-587.45 47.28,-1104 0,0 -57.4,-91.141 -148.57,-91.141 0,0 -27.01,60.762 -70.89,70.891 -43.88,10.121 -398.38,0 -398.38,0 0,0 -57.4,-13.5 -77.65,-70.891 0,0 -428.77,-20.27 -813.654,0 0,0 -54.019,162.051 -259.957,172.172 C 272.156,477.43 208.012,312 208.012,312 L 79.7227,332.25" /><path
         id="path68"
         style="fill:none;stroke:#ffffff;stroke-width:10;stroke-linecap:butt;stroke-linejoin:miter;stroke-miterlimit:10;stroke-dasharray:none;stroke-opacity:1"
         d="m 79.7227,332.25 c 0,0 -40.5118,435.531 0,604.332 40.5113,168.818 243.0823,536.808 310.6053,597.578 0,0 185.688,91.15 972.322,60.77 786.64,-30.39 837.28,-104.66 837.28,-104.66 0,0 158.69,-587.45 47.28,-1104 0,0 -57.4,-91.141 -148.57,-91.141 0,0 -27.01,60.762 -70.89,70.891 -43.88,10.121 -398.38,0 -398.38,0 0,0 -57.4,-13.5 -77.65,-70.891 0,0 -428.77,-20.27 -813.654,0 0,0 -54.019,162.051 -259.957,172.172 C 272.156,477.43 208.012,312 208.012,312 L 79.7227,332.25 Z" /><path
         id="path70"
         style="fill:#231f20;fill-opacity:1;fill-rule:nonzero;stroke:none"
         d="m 79.7227,332.25 c 0,0 -40.5118,435.531 0,604.332 40.5113,168.818 243.0823,536.808 310.6053,597.578 0,0 185.688,91.15 972.322,60.77 786.64,-30.39 837.28,-104.66 837.28,-104.66 0,0 158.69,-587.45 47.28,-1104 0,0 -57.4,-91.141 -148.57,-91.141 0,0 -27.01,60.762 -70.89,70.891 -43.88,10.121 -398.38,0 -398.38,0 0,0 -57.4,-13.5 -77.65,-70.891 0,0 -428.77,-20.27 -813.654,0 0,0 -54.019,162.051 -259.957,172.172 C 272.156,477.43 208.012,312 208.012,312 L 79.7227,332.25" /><path
         id="path72"
         style="fill:none;stroke:#ffffff;stroke-width:28.35000038;stroke-linecap:butt;stroke-linejoin:miter;stroke-miterlimit:10;stroke-dasharray:none;stroke-opacity:1"
         d="m 79.7227,332.25 c 0,0 -40.5118,435.531 0,604.332 40.5113,168.818 243.0823,536.808 310.6053,597.578 0,0 185.688,91.15 972.322,60.77 786.64,-30.39 837.28,-104.66 837.28,-104.66 0,0 158.69,-587.45 47.28,-1104 0,0 -57.4,-91.141 -148.57,-91.141 0,0 -27.01,60.762 -70.89,70.891 -43.88,10.121 -398.38,0 -398.38,0 0,0 -57.4,-13.5 -77.65,-70.891 0,0 -428.77,-20.27 -813.654,0 0,0 -54.019,162.051 -259.957,172.172 C 272.156,477.43 208.012,312 208.012,312 L 79.7227,332.25 Z" /><path
         id="path74"
         style="fill:#231f20;fill-opacity:1;fill-rule:nonzero;stroke:none"
         d="m 101.246,555.93 c 0,0 0.418,108.031 -32.914,118.582 C 34.9883,685.059 12.2031,600.238 14.3125,560.148 15.1523,544.129 13.4844,478.5 61.7109,462.66 104.41,448.629 101.246,555.93 101.246,555.93" /><path
         id="path76"
         style="fill:#231f20;fill-opacity:1;fill-rule:nonzero;stroke:none"
         d="m 101.246,555.93 c 0,0 0.418,108.031 -32.914,118.582 C 34.9883,685.059 12.2031,600.238 14.3125,560.148 15.1523,544.129 13.4844,478.5 61.7109,462.66 104.41,448.629 101.246,555.93 101.246,555.93" /><path
         id="path78"
         style="fill:none;stroke:#ffffff;stroke-width:28.35000038;stroke-linecap:butt;stroke-linejoin:miter;stroke-miterlimit:10;stroke-dasharray:none;stroke-opacity:1"
         d="m 101.246,555.93 c 0,0 0.418,108.031 -32.914,118.582 C 34.9883,685.059 12.2031,600.238 14.3125,560.148 15.1523,544.129 13.4844,478.5 61.7109,462.66 104.41,448.629 101.246,555.93 101.246,555.93 Z" /><path
         id="path80"
         style="fill:#231f20;fill-opacity:1;fill-rule:nonzero;stroke:none"
         d="m 2218.51,1470.03 c 0,0 -1092.52,72.45 -1899.076,24.4" /><path
         id="path82"
         style="fill:none;stroke:#ffffff;stroke-width:14.17000008;stroke-linecap:butt;stroke-linejoin:miter;stroke-miterlimit:10;stroke-dasharray:none;stroke-opacity:1"
         d="m 2218.51,1470.03 c 0,0 -1092.52,72.45 -1899.076,24.4" /><path
         id="path84"
         style="fill:#231f20;fill-opacity:1;fill-rule:nonzero;stroke:none"
         d="m 61.9336,737.551 c 0,0 34.668,222.664 240.6174,249.676 205.941,27.013 1984.319,-18.223 1984.319,-18.223" /><path
         id="path86"
         style="fill:none;stroke:#ffffff;stroke-width:17.01000023;stroke-linecap:butt;stroke-linejoin:miter;stroke-miterlimit:10;stroke-dasharray:none;stroke-opacity:1"
         d="m 61.9336,737.551 c 0,0 34.668,222.664 240.6174,249.676 205.941,27.013 1984.319,-18.223 1984.319,-18.223" /><path
         id="path88"
         style="fill:#ffffff;fill-opacity:1;fill-rule:nonzero;stroke:none"
         d="m 787.445,1161.09 13.926,225.36 c 0,0 8.859,51.92 -34.183,50.65 -43.047,-1.27 -225.356,5.06 -306.383,-13.93 -81.032,-18.99 -220.297,-330.44 -220.297,-330.44 l 503.89,15.2 c 0,0 39.825,1.07 43.047,53.16" /><path
         id="path90"
         style="fill:none;stroke:#ffffff;stroke-width:10;stroke-linecap:butt;stroke-linejoin:miter;stroke-miterlimit:10;stroke-dasharray:none;stroke-opacity:1"
         d="m 787.445,1161.09 13.926,225.36 c 0,0 8.859,51.92 -34.183,50.65 -43.047,-1.27 -225.356,5.06 -306.383,-13.93 -81.032,-18.99 -220.297,-330.44 -220.297,-330.44 l 503.89,15.2 c 0,0 39.825,1.07 43.047,53.16" /><path
         id="path92"
         style="fill:#ffffff;fill-opacity:1;fill-rule:nonzero;stroke:none"
         d="m 952.051,1437.15 c 0,0 227.869,-0.27 292.429,-5.23 0,0 43.48,-1.15 43.91,-51.79 0.41,-50.64 0,-230.42 0,-230.42 0,0 10.55,-56.98 -74.29,-56.98 l -264.604,0 c 0,0 -65.836,-5.07 -62.035,74.7 3.801,79.76 5.066,188.63 5.066,188.63 0,0 4.922,81.19 45.426,81.09 l 14.098,0" /><path
         id="path94"
         style="fill:none;stroke:#ffffff;stroke-width:10;stroke-linecap:butt;stroke-linejoin:miter;stroke-miterlimit:10;stroke-dasharray:none;stroke-opacity:1"
         d="m 952.051,1437.15 c 0,0 227.869,-0.27 292.429,-5.23 0,0 43.48,-1.15 43.91,-51.79 0.41,-50.64 0,-230.42 0,-230.42 0,0 10.55,-56.98 -74.29,-56.98 l -264.604,0 c 0,0 -65.836,-5.07 -62.035,74.7 3.801,79.76 5.066,188.63 5.066,188.63 0,0 4.922,81.19 45.426,81.09 l 14.098,0 z" /><path
         id="path96"
         style="fill:#ffffff;fill-opacity:1;fill-rule:nonzero;stroke:none"
         d="m 1383.12,1400.02 3.8,-257.54 c 0,0 -2.54,-38.53 39.89,-44.95 42.4,-6.43 284.22,-5.14 284.22,-5.14 0,0 32.93,-0.64 37.98,46.24 5.06,46.89 -8.3,220.28 -8.3,220.28 0,0 -0.62,44.96 -45.57,53.95 -44.95,9 -287.34,12.84 -287.34,12.84 0,0 -25.13,4.5 -24.68,-25.68" /><path
         id="path98"
         style="fill:none;stroke:#ffffff;stroke-width:10;stroke-linecap:butt;stroke-linejoin:miter;stroke-miterlimit:10;stroke-dasharray:none;stroke-opacity:1"
         d="m 1383.12,1400.02 3.8,-257.54 c 0,0 -2.54,-38.53 39.89,-44.95 42.4,-6.43 284.22,-5.14 284.22,-5.14 0,0 32.93,-0.64 37.98,46.24 5.06,46.89 -8.3,220.28 -8.3,220.28 0,0 -0.62,44.96 -45.57,53.95 -44.95,9 -287.34,12.84 -287.34,12.84 0,0 -25.13,4.5 -24.68,-25.68" /><path
         id="path100"
         style="fill:#ffffff;fill-opacity:1;fill-rule:nonzero;stroke:none"
         d="m 1834.46,1350.55 12.68,-226.39 c 0,0 3.16,-36.83 60.14,-43.49 56.96,-6.67 203.82,0 203.82,0 0,0 41.16,-2.6 42.42,60.44 1.26,63.04 -10.13,178.27 -10.13,178.27 0,0 -5.9,52.31 -51.92,62.36 -56.05,12.25 -209.53,13.56 -209.53,13.56 0,0 -47.48,6.09 -47.48,-44.75" /><path
         id="path102"
         style="fill:none;stroke:#ffffff;stroke-width:10;stroke-linecap:butt;stroke-linejoin:miter;stroke-miterlimit:10;stroke-dasharray:none;stroke-opacity:1"
         d="m 1834.46,1350.55 12.68,-226.39 c 0,0 3.16,-36.83 60.14,-43.49 56.96,-6.67 203.82,0 203.82,0 0,0 41.16,-2.6 42.42,60.44 1.26,63.04 -10.13,178.27 -10.13,178.27 0,0 -5.9,52.31 -51.92,62.36 -56.05,12.25 -209.53,13.56 -209.53,13.56 0,0 -47.48,6.09 -47.48,-44.75" /><path
         id="path104"
         style="fill:#231f20;fill-opacity:1;fill-rule:nonzero;stroke:none"
         d="m 1863.58,890.164 c 0,0 2.54,10.129 16.47,11.387 13.92,1.269 301.33,0 301.33,0 0,0 9.49,-3.153 11.38,-11.387 0,0 -4.43,6.262 -14.55,5.977 l -298.8,0 c 0,0 -13.92,0.988 -15.83,-5.977" /><path
         id="path106"
         style="fill:none;stroke:#ffffff;stroke-width:10;stroke-linecap:butt;stroke-linejoin:miter;stroke-miterlimit:10;stroke-dasharray:none;stroke-opacity:1"
         d="m 1863.58,890.164 c 0,0 2.54,10.129 16.47,11.387 13.92,1.269 301.33,0 301.33,0 0,0 9.49,-3.153 11.38,-11.387 0,0 -4.43,6.262 -14.55,5.977 l -298.8,0 c 0,0 -13.92,0.988 -15.83,-5.977" /><path
         id="path108"
         style="fill:#231f20;fill-opacity:1;fill-rule:nonzero;stroke:none"
         d="m 1863.58,847.207 c 0,0 2.54,10.137 16.47,11.395 13.92,1.269 301.33,0 301.33,0 0,0 9.49,-3.164 11.38,-11.395 0,0 -4.43,6.258 -14.55,5.984 l -298.8,0 c 0,0 -13.92,0.977 -15.83,-5.984" /><path
         id="path110"
         style="fill:none;stroke:#ffffff;stroke-width:10;stroke-linecap:butt;stroke-linejoin:miter;stroke-miterlimit:10;stroke-dasharray:none;stroke-opacity:1"
         d="m 1863.58,847.207 c 0,0 2.54,10.137 16.47,11.395 13.92,1.269 301.33,0 301.33,0 0,0 9.49,-3.164 11.38,-11.395 0,0 -4.43,6.258 -14.55,5.984 l -298.8,0 c 0,0 -13.92,0.977 -15.83,-5.984" /><path
         id="path112"
         style="fill:#231f20;fill-opacity:1;fill-rule:nonzero;stroke:none"
         d="m 1863.58,804.262 c 0,0 2.54,10.117 16.47,11.379 13.92,1.269 301.33,0 301.33,0 0,0 9.49,-3.161 11.38,-11.379 0,0 -4.43,6.25 -14.55,5.968 l -298.8,0 c 0,0 -13.92,0.981 -15.83,-5.968" /><path
         id="path114"
         style="fill:none;stroke:#ffffff;stroke-width:10;stroke-linecap:butt;stroke-linejoin:miter;stroke-miterlimit:10;stroke-dasharray:none;stroke-opacity:1"
         d="m 1863.58,804.262 c 0,0 2.54,10.117 16.47,11.379 13.92,1.269 301.33,0 301.33,0 0,0 9.49,-3.161 11.38,-11.379 0,0 -4.43,6.25 -14.55,5.968 l -298.8,0 c 0,0 -13.92,0.981 -15.83,-5.968" /><path
         id="path116"
         style="fill:#231f20;fill-opacity:1;fill-rule:nonzero;stroke:none"
         d="m 1863.58,761.301 c 0,0 2.54,10.121 16.47,11.379 13.92,1.269 301.33,0 301.33,0 0,0 9.49,-3.149 11.38,-11.379 0,0 -4.43,6.258 -14.55,5.969 l -298.8,0 c 0,0 -13.92,0.992 -15.83,-5.969" /><path
         id="path118"
         style="fill:none;stroke:#ffffff;stroke-width:10;stroke-linecap:butt;stroke-linejoin:miter;stroke-miterlimit:10;stroke-dasharray:none;stroke-opacity:1"
         d="m 1863.58,761.301 c 0,0 2.54,10.121 16.47,11.379 13.92,1.269 301.33,0 301.33,0 0,0 9.49,-3.149 11.38,-11.379 0,0 -4.43,6.258 -14.55,5.969 l -298.8,0 c 0,0 -13.92,0.992 -15.83,-5.969" /><path
         id="path120"
         style="fill:#231f20;fill-opacity:1;fill-rule:nonzero;stroke:none"
         d="m 1863.58,718.34 c 0,0 2.54,10.129 16.47,11.398 13.92,1.262 301.33,0 301.33,0 0,0 9.49,-3.168 11.38,-11.398 0,0 -4.43,6.262 -14.55,5.98 l -298.8,0 c 0,0 -13.92,0.981 -15.83,-5.98" /><path
         id="path122"
         style="fill:none;stroke:#ffffff;stroke-width:10;stroke-linecap:butt;stroke-linejoin:miter;stroke-miterlimit:10;stroke-dasharray:none;stroke-opacity:1"
         d="m 1863.58,718.34 c 0,0 2.54,10.129 16.47,11.398 13.92,1.262 301.33,0 301.33,0 0,0 9.49,-3.168 11.38,-11.398 0,0 -4.43,6.262 -14.55,5.98 l -298.8,0 c 0,0 -13.92,0.981 -15.83,-5.98" /><path
         id="path124"
         style="fill:#231f20;fill-opacity:1;fill-rule:nonzero;stroke:none"
         d="m 1863.58,675.379 c 0,0 2.54,10.133 16.47,11.402 13.92,1.27 301.33,0 301.33,0 0,0 9.49,-3.172 11.38,-11.402 0,0 -4.43,6.262 -14.55,5.992 l -298.8,0 c 0,0 -13.92,0.969 -15.83,-5.992" /><path
         id="path126"
         style="fill:none;stroke:#ffffff;stroke-width:10;stroke-linecap:butt;stroke-linejoin:miter;stroke-miterlimit:10;stroke-dasharray:none;stroke-opacity:1"
         d="m 1863.58,675.379 c 0,0 2.54,10.133 16.47,11.402 13.92,1.27 301.33,0 301.33,0 0,0 9.49,-3.172 11.38,-11.402 0,0 -4.43,6.262 -14.55,5.992 l -298.8,0 c 0,0 -13.92,0.969 -15.83,-5.992" /><path
         id="path128"
         style="fill:#231f20;fill-opacity:1;fill-rule:nonzero;stroke:none"
         d="m 1987.67,1685.36 c 0,0 120.27,125.21 217.75,137.88 97.49,12.67 -84.82,-87.35 -56.97,-174.72 l -160.78,36.84" /><g
         transform="scale(10,10)"
         id="g130"><text
           id="text132"
           style="font-variant:normal;font-weight:bold;font-size:63.65359879px;font-family:Amatic;-inkscape-font-specification:Amatic-Bold;writing-mode:lr-tb;fill:#ffffff;fill-opacity:1;fill-rule:nonzero;stroke:none"
           transform="matrix(1,0,0,-1,68.2211,45.5391)"><tspan
             id="tspan134"
             y="0"
             x="0 19.829601">go</tspan></text>
</g><path
         id="path136"
         style="fill:none;stroke:#ffffff;stroke-width:10;stroke-linecap:butt;stroke-linejoin:miter;stroke-miterlimit:10;stroke-dasharray:none;stroke-opacity:1"
         d="m 864.477,629.375 c 0,13.375 -19.125,19.75 -57.36,19.75 l -8.922,0 0,0.641 c -5.734,0 -10.828,-1.922 -15.297,-5.094 -4.453,-3.188 -6.375,-7.656 -6.375,-13.391 0,-9.562 7.657,-14.656 22.313,-14.656 l 12.109,0 c 7,0 12.11,-0.641 15.297,-1.906 l 0,-29.328 c 0,-68.188 -10.844,-101.953 -31.234,-101.953 -15.297,0 -28.031,7.64 -37.594,22.296 -3.828,6.375 -7.656,14.657 -10.203,24.86 -3.188,10.187 -6.375,22.937 -8.922,37.594 -2.547,15.296 -3.828,42.703 -3.828,82.843 0,58.641 5.109,108.985 15.937,150.407 7.657,29.312 19.125,43.328 33.782,43.328 l 13.375,-1.266 c 5.109,0 9.562,1.266 14.031,4.453 3.812,3.828 5.734,7.656 5.734,12.75 0,10.828 -10.203,15.938 -31.234,15.938 -21.031,0 -39.516,-8.922 -55.438,-27.407 -6.375,-7.656 -12.109,-17.843 -16.578,-31.859 -4.453,-13.391 -8.922,-28.047 -12.109,-43.984 -3.813,-15.922 -5.734,-54.157 -5.734,-114.063 l 0,-27.406 c 0,-10.844 0.64,-24.859 1.281,-42.703 0.64,-12.11 1.265,-22.297 2.547,-29.953 0.64,-7.641 2.547,-17.844 5.093,-31.86 2.547,-14.015 8.297,-28.687 17.844,-43.968 13.391,-22.313 35.063,-33.141 64.375,-33.141 19.75,0 36.328,5.734 50.985,17.203 14.656,11.469 22.296,27.406 22.296,48.438 l -3.187,67.546 7.016,45.891 z m 38.644,-73.297 c 2.547,-24.219 10.188,-48.437 21.656,-73.922 12.75,-25.484 30.594,-38.875 54.172,-38.875 56.721,0 84.761,61.188 84.761,183.547 l -1.28,72 0,5.11 c 0,41.421 -5.09,77.109 -15.93,105.781 -19.11,49.719 -52.895,74.562 -101.957,74.562 -6.375,0 -12.109,-3.187 -17.844,-8.281 -6.375,-5.734 -12.109,-20.391 -19.125,-44.609 -7.64,-28.047 -11.469,-75.203 -11.469,-142.11 l 0,-11.484 c 0.641,0 1.266,-1.266 1.266,-3.188 l -0.625,-24.203 c 0,-26.765 1.906,-58 6.375,-94.328 z m 30.578,218.594 c 0,20.391 1.922,37.594 5.735,50.984 5.109,16.563 14.656,24.844 29.328,24.844 14.656,0 27.39,-6.359 36.948,-18.469 10.21,-12.109 15.3,-26.14 15.3,-41.422 l 0,-11.484 c 0,-15.922 1.28,-40.781 4.45,-73.281 2.57,-33.141 3.83,-58 3.83,-73.922 0,-15.938 -0.64,-35.047 -2.54,-57.359 -1.29,-13.375 -3.19,-25.485 -5.74,-36.969 -2.55,-11.469 -5.09,-22.938 -8.92,-33.125 -3.83,-10.844 -8.92,-19.125 -14.656,-24.86 -6.375,-6.375 -13.391,-9.562 -21.032,-9.562 -9.562,4.469 -19.75,20.391 -29.953,47.156 -10.203,45.891 -15.297,99.422 -15.297,161.235 l 3.188,58.64 -0.641,37.594 z" /><g
         transform="scale(10,10)"
         id="g138"><text
           id="text140"
           style="font-variant:normal;font-weight:bold;font-size:63.65359879px;font-family:Amatic;-inkscape-font-specification:Amatic-Bold;writing-mode:lr-tb;fill:#ffffff;fill-opacity:1;fill-rule:nonzero;stroke:#ffffff;stroke-width:1;stroke-linecap:butt;stroke-linejoin:miter;stroke-miterlimit:10;stroke-dasharray:none;stroke-opacity:1"
           transform="matrix(1,0,0,-1,111.80492,45.5391)"><tspan
             id="tspan142"
             y="0"
             x="0 13.812831 33.736408 49.395195">surf</tspan></text>
</g></g></g></svg>